<svg xmlns="http://www.w3.org/2000/svg" width="21" height="21" viewBox="0 0 21 21" fill="none">
<path d="M10.5 0.083374C4.74998 0.083374 0.083313 4.75004 0.083313 10.5C0.083313 16.25 4.74998 20.9167 10.5 20.9167C16.25 20.9167 20.9166 16.25 20.9166 10.5C20.9166 4.75004 16.25 0.083374 10.5 0.083374ZM18.2708 7.50004L15.375 8.69796C14.8437 7.28129 13.7291 6.15629 12.3021 5.63546L13.5 2.73962C15.6875 3.57296 17.4271 5.31254 18.2708 7.50004ZM10.5 13.625C8.77081 13.625 7.37498 12.2292 7.37498 10.5C7.37498 8.77087 8.77081 7.37504 10.5 7.37504C12.2291 7.37504 13.625 8.77087 13.625 10.5C13.625 12.2292 12.2291 13.625 10.5 13.625ZM7.5104 2.72921L8.72915 5.62504C7.29165 6.14587 6.15623 7.28129 5.62498 8.71879L2.72915 7.51046C3.5729 5.31254 5.31248 3.57296 7.5104 2.72921ZM2.72915 13.4896L5.62498 12.2917C6.15623 13.7292 7.28123 14.8542 8.71873 15.375L7.49998 18.2709C5.31248 17.4271 3.5729 15.6875 2.72915 13.4896ZM13.5 18.2709L12.3021 15.375C13.7291 14.8438 14.8541 13.7188 15.375 12.2813L18.2708 13.5C17.4271 15.6875 15.6875 17.4271 13.5 18.2709Z" fill="#FF9926"/>
</svg>